<svg width="326" height="156" viewBox="0 0 326 156" fill="none" xmlns="http://www.w3.org/2000/svg">
<g id="Halo" opacity="0.85">
<g id="halo">
<path id="Vector" opacity="0.8" d="M223.314 89.3979C226.123 89.4238 228.952 89.8082 231.101 89.6513C221.288 88.4457 211.873 87.9136 202.803 86.7007C202.204 86.8545 201.589 86.9323 200.971 86.9323C198.218 86.1954 195.342 86.0312 192.522 86.4497C193.424 87.0017 195.897 86.838 197.308 87.1754C198.212 87.3676 197.563 87.59 197.942 87.9281C207.938 89.0885 216.589 89.4437 226.178 89.9776C226.144 89.3878 223.71 89.8278 223.314 89.3979ZM277.564 88.4956L277.375 88.6339C277.105 88.8577 276.862 89.113 276.652 89.3942C276.407 89.7678 276.341 89.8295 276.224 90.0218L276.228 90.0912C276.255 90.3176 276.268 90.5454 276.267 90.7733L276.278 90.97C276.278 90.97 276.269 90.8196 276.346 90.7457L276.409 90.6145C276.403 90.5104 276.489 90.3895 276.541 90.2822C276.594 90.1781 276.654 90.0778 276.721 89.982C276.721 89.982 276.901 89.6933 277.052 89.4875C277.196 89.2913 277.356 89.1075 277.531 88.9383L277.785 88.715L277.564 88.4956ZM276.426 88.885C276.618 88.6223 276.829 88.3738 277.057 88.1416L277.165 88.0078C277.038 88.1091 276.917 88.2167 276.801 88.3302C276.559 88.5533 276.344 88.8029 276.159 89.0743V89.0743C276.177 89.189 276.183 89.3051 276.178 89.4211C276.212 89.1988 276.308 89.0426 276.415 88.8857L276.426 88.885ZM275.96 89.654C275.854 89.8333 275.772 90.025 275.714 90.2248C275.532 90.6991 275.61 90.857 275.866 90.8657C275.858 90.816 275.855 90.7657 275.858 90.7155C275.879 90.6388 275.906 90.5636 275.938 90.4905C275.991 90.3388 276.056 90.1915 276.133 90.0501C276.122 89.8535 276.109 89.6223 276.095 89.3795C276.067 89.5087 275.998 89.5126 275.948 89.6546L275.96 89.654ZM275.612 87.2145L275.604 87.0757C275.538 86.8552 275.469 86.6619 275.397 86.4959L275.277 86.2243L275.052 85.9239L274.702 85.4798L273.926 85.0947L270.756 83.4187C268.656 82.3781 266.548 81.4191 264.526 80.5479C264.006 80.3687 265.004 81.1936 264.255 81.0738C262.673 80.3865 261.757 79.5801 260.764 79.6713C263.235 80.8882 265.603 82.1455 267.933 83.3471L271.449 85.2006L273.206 86.11L273.852 86.4561L274.126 86.7769C274.12 86.7426 274.118 86.7077 274.12 86.6729C274.174 86.7451 274.218 86.8246 274.249 86.9091V86.9091C274.409 87.2776 274.539 87.658 274.639 88.047C274.647 88.1973 274.725 88.3437 274.757 88.4927L275.248 87.9428C275.044 88.2328 274.893 88.4386 274.786 88.607C274.916 89.1679 275.014 89.7355 275.08 90.3072L275.1 90.6541C275.096 90.6889 275.098 90.724 275.106 90.7582C275.096 90.6971 275.092 90.635 275.095 90.5731L275.177 90.3829L275.172 90.2904L275.264 90.0648C275.337 89.9214 275.409 89.7665 275.495 89.634L275.847 89.1036C275.839 88.9648 275.831 88.8145 275.823 88.6758C275.779 88.1853 275.708 87.6975 275.612 87.2145V87.2145ZM275.176 86.0792C275.175 86.114 275.177 86.1489 275.182 86.1833V86.1833L275.176 86.0792ZM274.806 85.4854C274.687 85.3979 274.574 85.3038 274.465 85.2032L274.539 85.2802L274.664 85.4355C274.937 85.5476 274.985 85.5681 274.852 85.4713L274.806 85.4854ZM48.6077 68.876C48.5068 68.8996 48.4137 68.9489 48.3374 69.019C48.3374 69.019 48.268 69.0229 48.4299 69.0137C48.5625 68.9752 48.677 68.8905 48.7527 68.775C48.7527 68.775 48.6609 68.7918 48.6533 68.8618L48.6077 68.876ZM276.065 90.8893L276.068 90.9471C276.068 90.9471 276.059 90.7967 276.136 90.7228L276.199 90.5916C276.193 90.4876 276.278 90.3667 276.33 90.2593C276.383 90.1552 276.444 90.0549 276.511 89.9591C276.511 89.9591 276.691 89.6704 276.842 89.4646C276.986 89.2684 277.146 89.0846 277.321 88.9154L277.575 88.6921L277.461 88.5131L277.271 88.6514C277.001 88.8752 276.759 89.1304 276.549 89.4117C276.304 89.7853 276.237 89.847 276.121 90.0393L276.125 90.1086C276.151 90.3351 276.164 90.5628 276.163 90.7908L276.065 90.8893ZM275.979 89.3861C276.074 89.2183 276.17 89.062 276.277 88.9051C276.469 88.6424 276.679 88.3939 276.907 88.1617L277.016 88.028C276.889 88.1292 276.767 88.2368 276.651 88.3503C276.41 88.5734 276.194 88.823 276.009 89.0944C276.027 89.2091 276.034 89.3253 276.029 89.4413L275.979 89.3861ZM275.564 90.2449C275.382 90.7192 275.461 90.8772 275.716 90.8858C275.708 90.8362 275.706 90.7858 275.708 90.7355C275.729 90.6588 275.756 90.5837 275.788 90.5105C275.841 90.3588 275.907 90.2116 275.983 90.0702C275.972 89.8737 275.959 89.6425 275.945 89.3996C275.95 89.4921 275.839 89.5796 275.787 89.6754C275.738 89.855 275.71 90.0395 275.702 90.2254L275.564 90.2449ZM271.323 85.2194L273.08 86.1288L273.726 86.4749L273.999 86.7957C273.993 86.7614 273.991 86.7264 273.993 86.6916C274.047 86.7638 274.091 86.8434 274.123 86.9279V86.9279C274.282 87.2964 274.412 87.6768 274.512 88.0658C274.521 88.2161 274.599 88.3625 274.63 88.5115L275.121 87.9616C274.917 88.2516 274.766 88.4574 274.66 88.6258C274.789 89.1867 274.887 89.7543 274.954 90.326L274.974 90.6729C274.97 90.7077 274.972 90.7428 274.979 90.7769C274.969 90.7158 274.966 90.6538 274.969 90.5919L275.051 90.4016L275.046 90.3092L275.137 90.0836C275.21 89.9402 275.283 89.7853 275.368 89.6529L275.721 89.1224C275.713 88.9836 275.704 88.8333 275.696 88.6946C275.695 88.2001 275.667 87.706 275.612 87.2145C275.79 87.1426 275.973 87.0818 276.159 87.0326C276.352 86.9636 276.292 86.9322 276.142 86.732C275.922 86.8065 275.72 86.9245 275.546 87.079C275.48 86.8585 275.411 86.6652 275.339 86.4991L275.22 86.2276L274.994 85.9272L274.644 85.4831L273.868 85.098L270.756 83.4187C268.656 82.3781 266.548 81.4191 264.526 80.5479C264.006 80.3687 265.004 81.1936 264.255 81.0738C262.673 80.3865 261.757 79.5801 260.764 79.6713C263.235 80.8882 265.603 82.1455 267.933 83.3471L271.323 85.2194ZM275.084 86.0845C275.082 86.1193 275.084 86.1542 275.09 86.1886V86.1886L275.084 86.0845ZM274.714 85.4907C274.595 85.4032 274.481 85.309 274.373 85.2085L274.447 85.2855L274.572 85.4407C274.937 85.5476 274.985 85.5681 274.852 85.4713L274.714 85.4907ZM273.906 89.6547C273.812 89.8203 273.737 89.9958 273.681 90.1779L273.688 90.2935C273.758 90.3451 273.814 90.4138 273.85 90.4931C273.858 90.535 273.86 90.5778 273.857 90.6203C273.849 90.5902 273.847 90.5587 273.852 90.5278L273.846 90.4353C273.855 90.335 273.877 90.2363 273.911 90.1416C273.935 90.0456 273.965 89.951 273.999 89.8582L274.091 89.6326L274.213 89.3357C274.326 89.0996 274.461 88.8745 274.616 88.6632C274.616 88.6632 274.611 88.5822 274.609 88.5475C274.364 88.8733 274.173 89.2368 274.044 89.6237L273.906 89.6547ZM273.625 90.4131L273.618 90.2975C273.67 90.3236 273.719 90.3559 273.763 90.3937L273.625 90.4131ZM273.635 90.5981C273.625 90.537 273.622 90.4749 273.625 90.4131L273.63 90.5056C273.721 90.686 273.727 90.5813 273.75 90.58L273.635 90.5981ZM273.274 87.3125L273.39 87.3059L273.64 87.4194L273.153 87.0178L272.91 86.8113L273.209 87.1886L273.274 87.3125ZM275.418 91.97C274.284 92.4173 272.068 92.4157 271.451 92.9959C272.878 92.9935 274.281 92.6346 275.533 91.9519L275.418 91.97ZM272.8 86.7131C272.759 86.6576 272.709 86.6094 272.652 86.5707C272.693 86.6331 272.743 86.689 272.801 86.7362L272.912 86.8575L272.8 86.7131ZM272.95 87.5282L273.112 87.7278C273.071 87.6705 273.032 87.6107 272.998 87.5486V87.5486C272.998 87.5486 273.003 87.6411 273.006 87.6989C273.141 88.0216 273.257 88.3521 273.353 88.6885C273.363 88.356 273.345 88.0232 273.296 87.6941L273.4 87.6882L273.292 87.6131C273.292 87.6131 273.292 87.6131 273.288 87.5438C273.284 87.4744 273.216 87.3042 273.186 87.1899L272.804 87.0028L272.374 86.7836L272.38 86.8762L272.293 86.7882L271.672 86.4755L269.71 85.427C268.287 84.6727 266.91 83.9157 265.625 83.142C264.545 82.8787 263.493 82.5071 262.488 82.0326C262.326 82.0418 262.222 82.0477 262.181 82.1428C265.167 83.4579 268.535 85.1574 271.942 86.9359L272.95 87.5282ZM272.944 87.4125L272.846 87.3253C272.893 87.137 272.992 87.2358 273.08 87.3584L272.944 87.4125ZM269.157 93.0335C268.996 93.4719 270.729 93.1414 270.81 92.9395C270.304 92.909 269.796 92.934 269.295 93.014L269.157 93.0335ZM263.588 80.1605C262.969 79.7304 262.258 79.4528 261.512 79.3504C262.425 79.7045 263.3 80.606 263.726 80.141L263.588 80.1605ZM259.177 79.1003C259.573 79.322 260.012 79.4553 260.464 79.4911C260.166 79.1369 259.561 78.7073 259.316 79.0808L259.177 79.1003ZM258.915 78.1639C258.738 77.8956 258.043 77.5175 257.884 77.7817C258.466 78.0155 258.756 78.4166 259.054 78.1445L258.915 78.1639ZM250.524 90.7399C251.412 90.8519 253.25 91.1419 253.782 90.7172C253.274 90.5489 250.987 90.3076 250.662 90.7205L250.524 90.7399ZM250.686 75.0124C250.326 74.8124 250.06 74.6187 250.002 74.4132C250.303 74.3961 250.825 74.61 251.171 74.5787L249.597 73.8098C248.984 73.8447 249.79 74.1468 249.528 74.4401C249.451 74.4039 249.366 74.3874 249.282 74.3922C249.197 74.3971 249.115 74.423 249.042 74.4677C249.751 74.6942 250.575 75.3086 250.824 74.9929L250.686 75.0124ZM243.957 72.3439C244.824 72.7122 245.968 73.4476 246.433 73.2588C245.785 72.8931 245.171 72.4698 244.598 71.9942C244.595 72.1452 244.184 72.0526 244.095 72.3244L243.957 72.3439ZM244.054 71.6075C243.607 71.1943 243.015 70.9738 242.407 70.9936C243.063 71.1186 243.935 71.7651 244.193 71.5997L244.054 71.6075ZM242.038 67.9752C241.151 67.6776 239.75 66.7016 239.336 66.9687C240.218 67.3826 241.481 68.1809 242.038 67.9752ZM197.997 87.8786C207.993 89.039 216.644 89.3941 226.233 89.928C226.2 89.3383 223.765 89.7783 223.37 89.3483C226.178 89.3743 229.008 89.7587 231.156 89.6018C221.344 88.3962 211.929 87.8641 202.858 86.6511C202.26 86.805 201.644 86.8828 201.027 86.8828C198.273 86.1459 195.397 85.9817 192.577 86.4002C193.479 86.9521 195.952 86.7884 197.363 87.1259C198.212 87.3676 197.563 87.59 197.931 87.9288L197.997 87.8786ZM228.434 92.7262C228.736 92.941 229.606 92.938 229.585 92.5795C228.993 92.5668 228.457 92.5276 228.367 92.7764L228.434 92.7262ZM212.481 60.6416C214.688 61.5529 216.956 62.3078 219.268 62.9007C217.528 62.2804 217.298 61.5046 215.859 60.8788C215.875 61.1563 216.115 61.5139 215.445 61.3548C214.694 61.0898 213.959 60.779 213.246 60.4241C213.577 60.3241 214.431 60.8672 214.598 60.5329C213.692 60.306 212.216 59.4386 211.865 59.795C212.591 60.1249 212.448 60.2606 212.481 60.6416ZM217.22 87.2849C217.394 87.2751 217.482 87.2005 217.463 87.0624C211.516 86.3215 203.155 85.7526 197.424 85.3359C200.292 86.4026 205.223 86.2151 209.389 86.6512C211.983 87.0108 214.598 87.2032 217.217 87.2271L217.22 87.2849ZM208.761 59.4841C209.651 59.6308 210.925 60.208 211.705 60.2449C210.495 59.78 209.542 59.1381 208.758 59.4263L208.761 59.4841ZM100.891 48.6898C100.793 49.2058 101.915 49.142 102.383 48.8138C102.449 48.3345 101.545 48.5482 100.888 48.6319L100.891 48.6898ZM92.7454 82.5268C91.1083 81.889 89.9428 81.7928 88.2929 81.1326C88.9755 81.9174 91.8435 82.578 92.7454 82.5268ZM197.419 85.255C200.287 86.3216 205.218 86.1342 209.384 86.5702C211.978 86.9494 214.594 87.1611 217.216 87.204C217.389 87.1941 217.478 87.1195 217.458 86.9814C211.51 86.2174 203.152 85.6948 197.42 85.2781L197.419 85.255ZM228.413 92.7737C228.716 92.9886 229.585 92.9855 229.565 92.6271C228.993 92.5668 228.457 92.5276 228.367 92.7764L228.413 92.7737ZM250.662 90.7205C251.55 90.8324 253.388 91.1224 253.92 90.6977C253.274 90.5489 250.987 90.3076 250.662 90.7205V90.7205ZM269.295 93.014C269.134 93.4524 270.867 93.1219 270.948 92.9201C270.395 92.8854 269.84 92.9169 269.295 93.014ZM271.613 92.9751C272.999 92.9594 274.36 92.6074 275.58 91.9493C274.399 92.3992 272.183 92.3975 271.566 92.9778L271.613 92.9751ZM276.254 86.6676C276.034 86.7421 275.832 86.8601 275.659 87.0146C275.597 87.0797 275.55 87.1576 275.521 87.2429L275.612 87.2145C275.79 87.1426 275.973 87.0818 276.159 87.0326C276.395 86.9032 276.335 86.8718 276.208 86.6702L276.254 86.6676ZM274.805 88.5248C274.504 88.8493 274.262 89.2243 274.091 89.6326C273.997 89.7983 273.921 89.9737 273.865 90.1558L273.872 90.2714C273.942 90.323 273.998 90.3917 274.034 90.471C274.042 90.5129 274.045 90.5557 274.041 90.5983C274.033 90.5682 274.031 90.5366 274.036 90.5057L274.031 90.4132C274.039 90.3129 274.061 90.2142 274.095 90.1196C274.119 90.0235 274.149 89.9289 274.184 89.8361L274.275 89.6105L274.397 89.3136C274.511 89.0775 274.645 88.8524 274.8 88.6411C274.8 88.6411 274.772 88.5615 274.759 88.5274L274.805 88.5248ZM273.751 90.3943L273.745 90.2787C273.754 90.3164 273.76 90.3549 273.763 90.3937L273.751 90.3943ZM273.762 90.5793C273.752 90.5182 273.748 90.4562 273.751 90.3943L273.756 90.4868C273.721 90.686 273.727 90.5813 273.75 90.58L273.762 90.5793ZM273.47 87.6842C273.47 87.6842 273.47 87.6842 273.466 87.6149C273.462 87.5455 273.394 87.3753 273.364 87.261L272.983 87.0739L272.552 86.8547L272.558 86.9472L272.472 86.8593L271.85 86.5466L269.71 85.427C268.287 84.6727 266.91 83.9157 265.625 83.142C264.545 82.8787 263.493 82.5071 262.488 82.0326C262.326 82.0418 262.222 82.0477 262.181 82.1428C265.167 83.4579 268.535 85.1574 271.942 86.9359L273.054 87.5107L273.216 87.7103C273.174 87.653 273.136 87.5932 273.101 87.5312V87.5312C273.101 87.5312 273.107 87.6237 273.11 87.6815C273.245 88.0042 273.36 88.3347 273.456 88.6711C273.467 88.3386 273.448 88.0057 273.4 87.6766L273.504 87.6707L273.47 87.6842ZM273.093 87.3925L272.996 87.3052C272.893 87.137 272.992 87.2358 273.08 87.3584L273.093 87.3925ZM273.401 87.2938L273.517 87.2872L273.767 87.4006L273.28 86.999L273.036 86.7925L273.336 87.1698L273.401 87.2938ZM273.027 86.8394L272.915 86.6949C272.874 86.6394 272.824 86.5912 272.767 86.5525C272.808 86.615 272.858 86.6708 272.916 86.7181L273.027 86.8394ZM261.663 79.365C262.462 79.7372 263.313 80.64 263.739 80.175C263.12 79.7308 262.404 79.4415 261.65 79.331L261.663 79.365ZM259.329 79.1148C259.725 79.3365 260.164 79.4699 260.616 79.5057C260.166 79.1369 259.561 78.7073 259.316 79.0808L259.329 79.1148ZM258.023 77.7738C258.467 78.027 258.756 78.4282 259.054 78.156C258.841 77.8781 258.182 77.498 258.023 77.7738ZM250.141 74.4053C250.441 74.3882 250.964 74.6021 251.31 74.5708L249.735 73.8019C249.122 73.8368 249.928 74.1389 249.667 74.4322C249.59 74.396 249.505 74.3795 249.42 74.3844C249.336 74.3892 249.253 74.4151 249.181 74.4598C249.787 74.7038 250.645 75.3163 250.859 75.0025C250.464 74.7929 250.198 74.5993 250.14 74.3937L250.141 74.4053ZM244.737 71.9863C244.561 72.1587 244.182 72.0179 244.095 72.336C244.963 72.7043 246.107 73.4397 246.572 73.2509C245.923 72.8816 245.308 72.4545 244.736 71.9748L244.737 71.9863ZM242.543 70.951C243.062 71.0955 243.934 71.742 244.191 71.565C243.74 71.1605 243.15 70.9484 242.545 70.9741L242.543 70.951ZM239.279 66.9952C240.216 67.3595 241.48 68.1577 241.981 68.0016C241.093 67.6809 239.646 66.7075 239.281 67.0183L239.279 66.9952ZM219.264 62.8198C217.523 62.1995 217.293 61.4237 215.854 60.7979C215.87 61.0754 216.111 61.4329 215.44 61.2738C214.689 61.0088 213.955 60.698 213.241 60.3431C213.572 60.2431 214.427 60.7862 214.593 60.4519C213.687 60.225 212.211 59.3577 211.86 59.7141C212.578 60.1025 212.447 60.2375 212.477 60.5606C214.683 61.4798 216.951 62.2425 219.265 62.8429L219.264 62.8198ZM208.757 59.4032C209.647 59.5498 210.921 60.127 211.7 60.1639C210.495 59.78 209.542 59.1381 208.758 59.4263L208.757 59.4032ZM100.887 48.6088C100.789 49.1248 101.91 49.0611 102.379 48.7328C102.449 48.3344 101.545 48.5482 100.888 48.6319L100.887 48.6088ZM52.8545 76.2445C52.6883 76.3815 52.4246 76.6401 52.3258 76.7385L52.7699 76.3885C52.957 76.2005 53.2064 76.0874 53.471 76.0702C53.5305 75.929 53.5613 75.7774 53.5617 75.6243C53.3981 75.8076 53.1202 76.0205 52.8559 76.2676L52.8545 76.2445ZM53.4327 76.2116L53.4975 76.1267C53.4743 76.1478 53.4478 76.165 53.4191 76.1776L53.4327 76.2116ZM53.2635 76.4996C53.1775 76.6205 53.1038 76.7523 53.0192 76.8963C53.183 76.6994 53.3189 76.4809 53.4231 76.2469C53.4231 76.2469 53.4231 76.2469 53.4231 76.2469L53.2635 76.4996ZM88.3308 81.1884C89.0121 81.9501 91.8917 82.6101 92.7834 82.5826C91.1096 81.9121 89.9441 81.816 88.2942 81.1557L88.3308 81.1884ZM310.17 82.9304C309.711 80.2461 309.017 77.6072 308.097 75.044L307.685 73.9074L307.161 72.6496L306.603 71.4053C306.349 70.8861 306.088 70.3789 305.82 69.8837L305.418 69.1293C305.263 68.8597 305.185 68.7018 304.955 68.332C304.558 67.6817 304.151 67.0437 303.686 66.4205L303.03 65.4833L302.792 65.1721L302.478 64.7607C301.968 64.1516 301.522 63.4462 299.569 61.3299C298.292 59.9778 296.898 58.7411 295.403 57.6342C294.278 56.8009 293.1 56.0425 291.875 55.3638L288.539 53.6162C286.291 52.4331 284.091 51.2705 281.894 50.1657C279.696 49.061 277.534 47.9543 275.332 46.9658C273.129 45.9773 270.406 44.5893 268.192 43.8102C265.088 42.6758 261.559 40.9971 258.172 39.5656C255.929 38.6838 253.366 37.6694 250.861 36.6634C248.356 35.6573 245.877 34.6962 243.842 33.791C241.603 32.7583 238.639 32.2538 235.848 31.3104C226.922 28.152 215.057 23.9078 206.316 21.9685C205.141 21.7105 203.982 21.73 202.935 21.4647C201.476 21.1068 199.519 20.348 197.821 20.0617C196.649 19.8499 195.883 20.0558 194.989 19.4222C190.706 19.1784 186.768 17.6621 182.568 17.2396C179.742 16.9014 176.472 16.9364 173.217 15.9846C172.641 16.0569 172.062 16.0898 171.482 16.0832C165.615 14.897 160.192 15.2168 154.257 14.6725C153.429 14.5919 152.508 14.3194 151.613 14.2775C150.717 14.2356 150.288 14.4456 149.404 14.4031C148.52 14.3605 147.685 14.1644 146.986 14.0997C144.695 13.9302 142.396 13.902 140.102 14.0153C137.786 14.0889 135.469 14.151 133.335 14.1562L128.405 14.158C126.775 14.2507 125.168 14.3421 123.603 14.373C120.467 14.4932 117.482 14.8484 114.793 15.0941C107.161 15.9643 99.5815 17.2548 92.0908 18.9596C90.9437 19.1871 89.6413 19.5396 88.4923 19.7325C86.2445 20.2071 84.0284 20.8212 81.857 21.5712C80.6593 21.9293 79.2423 22.1026 78.044 22.4491C76.8456 22.7956 75.9528 23.4148 74.8374 23.7914C74.1541 24.0158 73.2991 24.076 72.671 24.2509C71.7122 24.5258 70.7349 24.883 69.748 25.2754C68.7611 25.6679 67.7434 26.1318 66.6858 26.5051C59.8472 28.7336 53.1932 31.4932 46.7847 34.7587C44.3696 36.1738 42.0409 37.7316 39.8113 39.424C38.4492 40.3598 36.8956 41.1905 35.4284 42.3179C33.5057 43.8008 31.679 45.4041 29.9591 47.1181C29.0929 48.0025 28.2363 48.8516 27.4389 49.7205C26.6415 50.5895 25.9613 51.2778 24.9382 52.4611C23.8031 53.7386 22.7866 55.1165 21.9009 56.5779C21.4688 57.3448 21.0484 58.1112 20.6408 58.8999C20.2119 59.7234 19.8456 60.5779 19.5448 61.4563C19.1856 62.3602 18.8895 63.2879 18.6586 64.2327C18.4247 65.2204 18.2269 66.2293 18.0637 67.2362C17.8129 69.2934 17.8104 71.3734 18.0561 73.4312C18.5098 77.1244 19.719 80.6846 21.6086 83.89C23.1014 86.3935 24.8922 88.7067 26.9419 90.7791C28.6457 92.4971 30.477 94.0837 32.4202 95.5254C33.3159 96.1822 34.2239 96.8498 35.115 97.4256L36.4402 98.2899L37.6425 99.0336C40.9356 101.05 44.1994 102.756 47.3486 104.282C52.706 106.901 58.2853 109.751 63.3842 111.7C64.5089 112.1 65.7362 112.262 66.8262 112.664C68.606 113.363 70.8727 114.464 73.178 115.226C79.3486 117.254 85.1668 119 91.0977 120.484C93.4523 121.092 95.784 121.296 98.1432 121.986C98.6979 122.152 99.265 122.537 99.8543 122.701C102.212 123.367 105.049 123.484 107.566 124.084C110.082 124.683 112.248 124.815 114.601 125.401C117.704 126.118 120.263 126.239 122.939 126.783C123.944 127.139 125.001 127.322 126.067 127.324C128.174 127.975 130.319 128.496 132.489 128.885C133.425 129.017 134.328 128.78 135.243 128.96C137.454 129.287 139.58 130.361 141.51 130.031C150.011 132.042 161.804 133.379 170.925 134.879C173.11 134.88 175.292 135.05 177.451 135.389C182.549 136.097 188.139 136.696 192.579 137.465C203.641 139.423 216.186 140.322 225.822 143.324C228.857 143.233 232.837 144.283 234.811 143.092C237.288 141.571 235.022 138.44 234.274 136.29C233.926 134.776 233.699 133.238 233.595 131.688C233.091 129.153 231.332 126.991 229.469 125.032C225.078 124.713 220.755 124.367 216.858 124.183C212.121 123.907 207.467 123.452 202.871 123.017C198.276 122.582 193.822 122.174 189.58 122.044C187.224 121.401 184.68 120.931 182.535 120.542C181.479 120.347 180.496 120.182 179.755 120.016L179.249 119.882L178.881 119.741C178.809 119.696 178.743 119.641 178.686 119.578V119.578C178.67 119.403 178.641 119.231 178.599 119.061L178.464 118.314C178.314 117.511 178.153 116.719 177.969 115.93C177.972 115.899 177.97 115.867 177.963 115.837C177.956 115.698 177.924 115.549 177.868 115.39C177.618 114.516 177.443 113.621 177.345 112.717C177.32 112.453 177.392 112.189 177.547 111.975C177.682 111.736 177.761 111.469 177.781 111.196C177.755 110.745 177.41 110.382 177.362 109.944C177.216 109.221 177.857 108.651 177.91 107.952C177.963 107.253 177.543 106.813 177.562 106.324C177.603 105.417 178.479 104.695 178.703 103.94C178.373 103.537 177.958 103.212 177.488 102.988C177.573 102.438 178.41 102.263 178.695 101.759C177.486 100.911 179.091 100.159 179.716 99.3114C179.758 98.8334 178.749 99.0416 178.646 98.6646C178.728 98.4699 178.853 98.2962 179.012 98.1566L178.568 98.1007C177.306 97.9404 175.907 98.0199 174.622 97.8609C154.588 95.2061 135.03 91.5268 115.404 87.48C110.024 87.113 102.1 84.0368 97.0173 83.8036C99.1528 84.8423 103.218 85.1333 104.936 86.1725C98.6097 85.0128 92.4031 83.2765 86.3936 80.9853C86.4994 80.8053 88.0025 81.1259 87.1109 80.7474L82.0306 78.716C80.2828 77.9685 78.3527 77.2778 76.569 76.5091L71.2907 74.4659L66.6622 72.6293C67.3694 73.0299 68.1929 73.4355 68.9573 73.8212C69.616 74.0866 70.201 74.507 70.6626 75.0468L68.3853 74.167L66.192 73.1316C65.4772 72.801 64.7399 72.4833 64.0565 72.0929C63.3731 71.7026 62.7392 71.3674 62.1143 70.9853C62.2872 71.5786 63.1236 72.0067 63.9259 72.4484C64.7282 72.89 65.5986 73.3045 65.7041 73.9365C66.2706 74.3103 67.3049 74.3444 67.2909 74.9136C65.7814 75.0922 63.4709 72.8106 61.9552 72.6764C67.2213 75.7878 72.7723 78.3895 78.5328 80.4461C84.1401 82.5634 89.8845 84.441 96.3534 86.6139C97.1425 86.8242 96.9581 87.2523 97.8275 87.4465C99.8869 87.5637 101.925 87.9269 103.898 88.5283C105.98 89.0939 108.021 89.8035 110.004 90.6521C110.734 90.8311 111.01 90.595 111.737 90.7277C119.992 93.089 131.352 94.1835 140.373 96.9537C122.314 93.3399 103.928 90.6959 87.8293 85.4279C86.3062 84.9576 84.8227 84.3691 83.3065 83.8172L78.8286 82.1809C78.0001 81.8915 77.0807 81.8394 76.2632 81.5379C70.8627 79.3672 65.5872 76.898 60.4609 74.1417C60.0797 74.987 57.555 74.0401 57.3171 72.9168C57.0907 72.9994 56.8453 73.0154 56.6101 72.963C56.3748 72.9106 56.1595 72.7919 55.9895 72.621L52.0646 69.8976C52.4224 69.48 52.8992 69.1818 53.4313 69.0427C53.6513 68.833 53.2553 68.6003 53.742 68.387C54.2287 68.1737 54.5695 68.456 55.2248 67.9431C56.007 66.1934 58.8721 64.5574 61.6532 63.0769C62.3986 61.7005 64.5929 60.5085 66.405 59.3267C67.1415 59.0181 67.0474 59.8122 67.893 59.3814C68.8659 58.3118 70.1279 57.547 71.5264 57.1796C73.0958 56.6802 74.6387 56.1008 76.149 55.4437C76.9122 55.4003 76.2576 55.9247 76.9431 55.9438C77.822 55.5631 78.6025 54.9872 79.2254 54.2596C80.2267 54.5275 80.5628 54.114 81.6138 53.6251C81.9838 53.604 81.9844 54.0216 82.6964 53.6911C83.7189 53.517 84.0203 53.1055 85.0442 52.9545C85.5385 52.6712 85.6202 52.2721 86.3157 52.0586C87.5457 51.8611 88.019 51.2078 89.1138 51.2848C90.2389 50.6876 91.4458 50.2594 92.6957 50.014L96.9319 49.0308C98.9608 48.6023 101.017 48.033 102.971 47.5275C104.773 47.116 106.603 46.8414 108.447 46.706C108.844 47.3678 106.685 46.9337 106.844 47.493L112.014 47.0252C113.009 46.9687 114.044 46.8171 115.081 46.6885C116.118 46.56 117.145 46.4668 118.123 46.33C118.674 46.2291 118.317 45.6694 119.142 45.6921C119.976 45.8007 120.816 45.846 121.656 45.8276C122.585 45.8444 123.593 45.8335 124.624 45.7982C126.693 45.6805 128.867 45.557 130.761 45.6118C132.15 46.0536 133.649 45.993 134.997 45.4406C137.48 46.0651 140.062 45.1528 141.779 45.7744C143.408 45.3665 145.099 45.2704 146.763 45.4912C148.453 45.7244 150.168 45.7052 151.852 45.434C153.945 46.0472 156.154 46.1523 158.296 45.7405C158.952 45.8541 159.075 46.1835 159.493 46.3802C161.628 46.398 164.153 46.7301 166.744 47.0236C169.336 47.3171 171.995 47.7692 174.458 48.0353C175.013 48.201 174.849 48.5815 175.414 48.735C177.506 49.0105 180.036 49.6324 181.241 49.1927C182.463 50.2833 183.851 49.4039 184.775 50.1518C185.064 50.1354 184.639 49.5912 185.328 49.6796C186.338 49.6918 186.834 50.4525 187.946 50.8416C189.826 51.5628 191.863 51.7751 193.851 51.4573C196.953 52.3483 200.634 53.0323 203.119 53.9002C203.966 54.1073 202.767 54.2335 203.838 54.509C214.96 57.5078 227.885 62.8634 238.837 66.5563C238.382 66.3038 238.02 66.0575 237.969 65.782C240.292 66.2671 242.495 67.2107 244.449 68.5574C243.948 68.7135 242.644 67.8132 242.242 68.0912C249.369 71.0271 256.512 74.2404 263.428 77.5479C266.851 79.1978 270.214 80.8163 273.426 82.4202L275.811 83.5607C275.918 83.6126 275.99 83.6549 275.965 83.6215L275.866 83.5112C275.86 83.4187 275.998 83.5965 276.21 83.8512L276.944 84.7259C276.963 84.7297 276.983 84.7286 277.002 84.7226L277.141 84.9235C277.395 85.3737 277.604 85.8474 277.766 86.338C277.801 86.0465 277.774 85.7511 277.688 85.4704C277.602 85.1898 277.459 84.9299 277.268 84.7075C277.203 84.5836 277.157 84.5978 277.132 84.5644L276.77 84.121C276.546 83.8752 276.4 83.5687 276.349 83.2401C276.72 83.4426 277.044 83.7206 277.3 84.056C277.536 84.3326 277.489 84.3122 277.551 84.3783C277.612 84.4444 277.669 84.6151 277.734 84.739C278.019 85.6054 278.236 86.493 278.383 87.3934C278.051 87.6675 278.18 86.8714 277.848 87.157C278.034 87.9469 278.154 88.7512 278.205 89.5612C278.244 89.9144 278.265 90.2696 278.265 90.625C277.795 90.9185 277.209 91.2187 276.599 91.5201C276.919 91.5369 277.238 91.475 277.529 91.3397C277.768 91.2241 278.001 91.0946 278.226 90.952C278.232 91.0676 278.237 91.1486 278.237 91.1486C278.257 91.0639 278.291 90.9833 278.339 90.9108C278.843 90.5806 279.061 90.3477 279.4 90.5952C278.981 90.9939 278.497 91.3194 277.97 91.5582C277.239 91.9129 276.48 92.2082 275.7 92.4412C273.908 92.9656 272.074 93.3376 270.219 93.5532C266.214 94.0235 262.175 94.1365 258.15 93.891C258.949 93.66 260.657 93.9109 261.18 93.51C254.387 93.3972 246.66 93.3725 239.67 93.0621C240.432 93.4016 241.673 94.0038 240.257 94.4091C237.013 92.8418 229.623 94.0507 226.805 92.2387L190.052 88.9102C189.968 89.2746 190.561 89.496 190.03 89.7466C187.708 89.7162 186.989 90.5343 184.514 90.4661C183.995 90.7161 185.296 91.1641 184.517 91.5332C184.246 91.8734 182.362 91.3772 182.473 91.9045C181.851 92.3923 183.414 92.5471 183.162 93.1995C182.831 93.5083 181.891 93.4921 181.608 93.8329C183.137 95.022 181.41 95.8511 179.712 96.3884C180.267 97.1689 179.477 97.5618 178.95 98.0905C183.625 98.6949 187.758 99.5736 191.793 99.5415C195.287 101.013 200.587 101.188 204.8 102.456C205.541 102.832 203.527 103.318 203.47 103.947C200.269 103.352 199.597 104.585 196.709 104.192C197.362 105.884 201.604 106.234 205.304 106.836C205.761 106.705 205.49 106.025 206.103 105.99C208.316 106.56 210.14 106.596 211.977 107.292C211.082 108.074 208.178 107.392 206.519 107.602C206.193 108.595 210.452 108.829 210.93 109.892C216.465 110.737 216.586 113.48 221.37 114.577C220.92 115.24 219.927 115.517 219.127 115.945C219.45 117.342 223.491 117.403 225.384 118.258C225.408 118.686 224.66 118.589 224.602 118.987C224.969 119.743 226.536 120.153 225.67 121.049C226.658 122.303 228.007 123.596 229.374 124.991C235.756 125.429 242.277 125.859 247.832 126.042C252.853 126.209 258.03 126.263 263.654 126.024C266.464 125.865 269.435 125.696 272.582 125.343C276.275 124.935 279.931 124.25 283.521 123.294C284.538 123.028 285.803 122.631 286.941 122.242C288.079 121.852 289.476 121.32 290.979 120.632L292.111 120.127L293.316 119.501C294.127 119.072 294.881 118.67 295.821 118.06L297.163 117.183L297.821 116.716L298.566 116.152C299.067 115.775 299.555 115.377 300.031 114.978L300.385 114.68L300.893 114.233C302.622 112.649 304.16 110.868 305.476 108.927L305.957 108.203L306.243 107.735L306.792 106.775C307.498 105.494 308.12 104.168 308.654 102.807C308.975 101.918 309.271 101.008 309.532 100.089C309.668 99.617 309.793 99.1575 309.906 98.6987L310.104 97.7013C310.241 97.0439 310.354 96.3763 310.444 95.7215L310.52 95.2184L310.498 94.8369L310.583 94.0781L310.693 92.5406C310.722 92.0401 310.724 91.6688 310.735 91.239C310.807 88.4579 310.618 85.6762 310.17 82.9304V82.9304ZM176.372 109.884L176.242 109.427C176.168 109.141 176.093 108.856 176.008 108.582C176.136 108.992 176.253 109.426 176.372 109.884ZM73.8257 76.4098C73.9935 76.3605 74.1721 76.3609 74.3397 76.4111C74.5073 76.4613 74.6567 76.5591 74.7698 76.6926C74.7614 77.1571 73.9152 76.5556 73.8257 76.4098ZM76.8481 77.7461C77.0154 77.4234 78.2805 78.0475 78.5275 78.3119C77.9148 78.3534 77.3108 78.1499 76.8481 77.7461V77.7461ZM80.8038 78.9714C81.6799 79.2812 83.1572 79.5568 83.5395 80.1615C83.1595 80.4151 80.5443 79.5081 80.8038 78.9714ZM85.5552 80.9286C85.1099 80.8495 84.3838 80.7283 84.0506 80.3761L84.1421 80.1505C84.5931 80.1248 85.2398 80.4825 85.6474 80.7145L85.5552 80.9286ZM107.111 86.8956C107.28 86.3873 108.554 86.9761 109.446 87.1574C109.399 87.7633 107.965 87.0211 107.158 86.893L107.111 86.8956ZM110.797 87.6606C110.766 87.1056 112.185 87.5818 112.478 87.8435C112.207 87.9251 111.923 87.9507 111.642 87.9188C111.361 87.8869 111.089 87.7982 110.843 87.658L110.797 87.6606ZM112.862 88.0653C112.832 87.545 114.076 87.9963 114.343 88.2016C114.132 88.3759 113.548 88.3047 112.908 88.0627L112.862 88.0653ZM116.151 88.7832C117.648 88.6715 119.152 88.8704 120.569 89.3674C119.865 90.0454 117.431 88.8497 116.197 88.7806L116.151 88.7832ZM62.132 75.7868C62.0169 76.211 61.4844 75.8236 60.9573 75.5288C61.0741 74.9305 61.9709 75.4015 62.1782 75.7842L62.132 75.7868ZM51.6438 75.9652C51.3242 75.647 51.4764 75.6732 51.0206 75.4091C51.1131 75.4038 51.2444 75.0599 51.3855 74.8895C51.5266 74.7191 51.6132 74.6098 51.8117 74.6333C51.8288 74.9339 51.8413 75.1536 52.2659 75.0715C52.2109 75.3298 51.8087 75.8051 51.6901 75.9626L51.6438 75.9652ZM83.5598 53.1664C83.5473 52.9467 83.8414 52.8141 84.2999 52.7184L84.389 53.0613C84.1365 53.1432 83.8711 53.1779 83.606 53.1638L83.5598 53.1664ZM116.649 45.7062C116.63 45.3708 117.15 45.3297 117.693 45.2988C117.951 45.7482 117.181 45.6759 116.649 45.7062ZM121.256 45.1195C121.398 44.9934 121.574 44.9117 121.762 44.8846C121.95 44.8574 122.142 44.8859 122.314 44.9666C122.296 45.2576 121.519 45.2554 121.256 45.1195V45.1195ZM254.067 72.8713C254.375 72.5754 255.912 73.2885 256.343 73.728C255.837 74.0119 254.789 73.3175 254.056 72.872L254.067 72.8713ZM278.857 90.4289C278.412 90.1526 278.452 89.2223 278.605 88.6452C279.185 88.8443 278.792 89.8874 278.846 90.4296L278.857 90.4289ZM215.048 91.9209C215.103 91.6742 215.628 91.714 216.199 91.7743C216.281 92.1988 215.35 92.1358 215.036 91.9216L215.048 91.9209ZM217.071 91.8059C217.294 91.7497 217.526 91.7366 217.753 91.7672C217.827 91.8224 217.884 91.898 217.916 91.9848C217.947 92.0716 217.953 92.1658 217.932 92.2558C217.329 92.2669 216.964 92.16 217.062 91.8528L217.071 91.8059ZM238.522 94.9021C239.628 94.7003 240.763 94.7306 241.856 94.991C241.511 95.4399 239.171 95.0857 238.513 94.949L238.522 94.9021ZM241.702 93.9094L241.682 93.5625C241.98 93.5632 242.275 93.6213 242.551 93.7336C242.53 93.9783 242.196 94.0206 241.693 93.9563L241.702 93.9094ZM244.15 93.7007L245.312 93.7506C245.569 94.1884 243.789 94.0924 244.141 93.7476L244.15 93.7007ZM250.321 94.104C251.245 93.7967 252.235 93.7405 253.188 93.941C252.837 94.6918 251.512 94.0479 250.312 94.1509L250.321 94.104Z" fill="#FFC809"/>
<path id="Vector_2" opacity="0.8" d="M229.455 125.184C225.063 124.865 220.74 124.519 216.843 124.335C212.106 124.059 207.452 123.604 202.857 123.169C198.261 122.734 193.807 122.326 189.565 122.196C187.209 121.553 184.665 121.082 182.52 120.694C181.465 120.499 180.481 120.334 179.741 120.167L179.234 120.034L178.867 119.892C178.794 119.847 178.729 119.793 178.672 119.729V119.729C178.655 119.555 178.626 119.382 178.584 119.212L178.449 118.466C178.299 117.662 178.138 116.871 177.954 116.081C177.957 116.05 177.955 116.019 177.949 115.989C177.941 115.85 177.909 115.701 177.854 115.542C177.604 114.667 177.429 113.773 177.331 112.869C177.305 112.605 177.377 112.341 177.532 112.126C177.667 111.887 177.747 111.621 177.766 111.347C177.741 110.896 177.395 110.533 177.347 110.095C177.201 109.373 177.842 108.803 177.895 108.104C177.948 107.404 177.529 106.964 177.547 106.476C177.589 105.569 178.464 104.846 178.688 104.091C178.358 103.689 177.943 103.364 177.474 103.139C177.558 102.589 178.395 102.414 178.68 101.911C177.472 101.063 179.076 100.311 179.701 99.4631C179.743 98.985 178.734 99.1932 178.632 98.8162C178.714 98.6215 178.839 98.4479 178.997 98.3083C183.672 98.9126 187.805 99.7914 191.84 99.7592C195.334 101.231 200.634 101.405 204.847 102.674C205.588 103.05 203.574 103.535 203.517 104.165C200.316 103.57 199.644 104.803 196.756 104.41C197.409 106.101 201.651 106.452 205.351 107.054C205.808 106.923 205.537 106.243 206.15 106.208C208.363 106.778 210.187 106.814 212.024 107.51C211.129 108.291 208.225 107.609 206.566 107.82C206.24 108.813 210.499 109.046 210.977 110.11C216.512 110.955 216.633 113.697 221.417 114.794C220.967 115.458 219.974 115.735 219.174 116.163C219.497 117.56 223.538 117.62 225.431 118.476C225.455 118.903 224.707 118.807 224.649 119.204C225.016 119.961 226.583 120.37 225.717 121.266C226.795 122.47 228.145 123.785 229.455 125.184Z" fill="#FDBC11"/>
</g>
<path id="halo-draw-svg-path" d="M178.995 118.555C53.4951 113.555 -44.0049 58.5547 106.495 34.0547C256.995 9.55466 406.748 124.15 178.995 114.555" stroke="#FFF8F8" stroke-width="60"/>
</g>
</svg>
